<?xml version="1.0" encoding="utf-8"?>
<svg width="130px" height="40px" viewBox="0 0 130 40" version="1.1" xmlns:xlink="http://www.w3.org/1999/xlink" xmlns="http://www.w3.org/2000/svg">
  <g id="Group-2">
    <path d="M122 0C126.419 0 130 3.58112 130 8L130 32C130 36.4189 126.419 40 122 40L8 40C3.58112 40 0 36.4189 0 32L0 8C0 3.58112 3.58112 0 8 0L122 0Z" id="Rectangle" fill="#004AAC" stroke="none" />
    <g id="hackerspace" transform="translate(6 11)">
      <g id="hackerspace" fill="#FFFFFF">
        <path d="M8.96 15.82L9.562 14.238L1.82 10.36L1.82 8.96L7.84 5.95L7.84 7.21L3.5 9.324Q3.262 9.45 3.066 9.534Q2.87 9.618 2.772 9.646Q2.87 9.674 3.066 9.758Q3.262 9.842 3.5 9.968L9.954 13.188L13.93 2.66L15.26 2.66L10.29 15.82L8.96 15.82ZM18.088 14.28L18.088 4.06L19.348 4.06L19.348 8.05L19.362 8.05Q19.46 7.28 19.992 6.86Q20.524 6.44 21.406 6.44Q22.568 6.44 23.254 7.154Q23.94 7.868 23.94 9.1L23.94 14.28L22.68 14.28L22.68 9.31Q22.68 8.442 22.239 7.973Q21.798 7.504 21.042 7.504Q20.258 7.504 19.803 7.994Q19.348 8.484 19.348 9.38L19.348 14.28L18.088 14.28ZM28.728 14.42Q27.538 14.42 26.838 13.755Q26.138 13.09 26.138 12.012Q26.138 11.298 26.46 10.766Q26.782 10.234 27.356 9.933Q27.93 9.632 28.672 9.632L31.052 9.632L31.052 9.03Q31.052 7.532 29.414 7.532Q28.686 7.532 28.238 7.798Q27.79 8.064 27.762 8.54L26.502 8.54Q26.572 7.63 27.349 7.035Q28.126 6.44 29.414 6.44Q30.814 6.44 31.563 7.112Q32.312 7.784 32.312 8.988L32.312 14.28L31.066 14.28L31.066 12.88L31.038 12.88Q30.926 13.594 30.324 14.007Q29.722 14.42 28.728 14.42ZM29.036 13.356Q29.96 13.356 30.506 12.908Q31.052 12.46 31.052 11.69L31.052 10.612L28.812 10.612Q28.196 10.612 27.811 10.983Q27.426 11.354 27.426 11.97Q27.426 12.614 27.853 12.985Q28.28 13.356 29.036 13.356ZM37.912 14.42Q36.512 14.42 35.672 13.636Q34.832 12.852 34.832 11.48L34.832 9.38Q34.832 8.008 35.672 7.224Q36.512 6.44 37.912 6.44Q39.242 6.44 40.061 7.154Q40.88 7.868 40.922 9.1L39.662 9.1Q39.62 8.358 39.158 7.959Q38.696 7.56 37.912 7.56Q37.086 7.56 36.589 8.029Q36.092 8.498 36.092 9.366L36.092 11.48Q36.092 12.348 36.589 12.824Q37.086 13.3 37.912 13.3Q38.696 13.3 39.158 12.894Q39.62 12.488 39.662 11.76L40.922 11.76Q40.88 12.992 40.061 13.706Q39.242 14.42 37.912 14.42ZM43.358 14.28L43.358 4.06L44.618 4.06L44.618 9.758L46.088 9.758L48.244 6.58L49.686 6.58L47.208 10.248L49.826 14.28L48.356 14.28L46.116 10.85L44.618 10.85L44.618 14.28L43.358 14.28ZM54.6 14.42Q53.242 14.42 52.409 13.601Q51.576 12.782 51.576 11.34L51.576 9.52Q51.576 8.078 52.409 7.259Q53.242 6.44 54.6 6.44Q55.51 6.44 56.189 6.804Q56.868 7.168 57.246 7.826Q57.624 8.484 57.624 9.38L57.624 10.752L52.808 10.752L52.808 11.48Q52.808 12.334 53.298 12.831Q53.788 13.328 54.6 13.328Q55.3 13.328 55.755 13.055Q56.21 12.782 56.308 12.32L57.568 12.32Q57.442 13.286 56.63 13.853Q55.818 14.42 54.6 14.42ZM52.808 9.772L56.392 9.772L56.392 9.38Q56.392 8.47 55.923 7.973Q55.454 7.476 54.6 7.476Q53.746 7.476 53.277 7.973Q52.808 8.47 52.808 9.38L52.808 9.772ZM60.368 14.28L60.368 6.58L61.628 6.58L61.628 8.05L61.656 8.05Q61.754 7.308 62.286 6.874Q62.818 6.44 63.714 6.44Q64.918 6.44 65.569 7.161Q66.22 7.882 66.22 9.212L66.22 9.87L64.96 9.87L64.96 9.212Q64.96 7.532 63.322 7.532Q62.496 7.532 62.062 8.008Q61.628 8.484 61.628 9.38L61.628 14.28L60.368 14.28ZM71.092 14.392Q69.804 14.392 69.097 13.811Q68.39 13.23 68.39 12.166L69.65 12.166Q69.65 12.698 70.028 12.999Q70.406 13.3 71.092 13.3L71.708 13.3Q72.408 13.3 72.793 12.992Q73.178 12.684 73.178 12.124Q73.178 11.13 72.268 11.004L70.14 10.696Q69.356 10.584 68.922 10.045Q68.488 9.506 68.488 8.624Q68.488 7.616 69.181 7.042Q69.874 6.468 71.092 6.468L71.708 6.468Q72.828 6.468 73.535 7.021Q74.242 7.574 74.298 8.47L73.024 8.47Q72.996 8.064 72.639 7.798Q72.282 7.532 71.708 7.532L71.092 7.532Q70.448 7.532 70.084 7.826Q69.72 8.12 69.72 8.624Q69.72 9.436 70.462 9.548L72.45 9.828Q74.41 10.108 74.41 12.124Q74.41 13.202 73.703 13.797Q72.996 14.392 71.708 14.392L71.092 14.392ZM76.888 16.8L76.888 6.58L78.148 6.58L78.148 8.05L78.162 8.05Q78.26 7.294 78.82 6.867Q79.38 6.44 80.248 6.44Q81.41 6.44 82.096 7.203Q82.782 7.966 82.782 9.296L82.782 11.55Q82.782 12.88 82.096 13.65Q81.41 14.42 80.248 14.42Q79.38 14.42 78.82 13.986Q78.26 13.552 78.162 12.81L78.12 12.81L78.148 14.56L78.148 16.8L76.888 16.8ZM79.828 13.328Q80.626 13.328 81.074 12.908Q81.522 12.488 81.522 11.55L81.522 9.31Q81.522 8.358 81.074 7.945Q80.626 7.532 79.828 7.532Q79.058 7.532 78.603 8.022Q78.148 8.512 78.148 9.38L78.148 11.48Q78.148 12.348 78.603 12.838Q79.058 13.328 79.828 13.328ZM87.528 14.42Q86.338 14.42 85.638 13.755Q84.938 13.09 84.938 12.012Q84.938 11.298 85.26 10.766Q85.582 10.234 86.156 9.933Q86.73 9.632 87.472 9.632L89.852 9.632L89.852 9.03Q89.852 7.532 88.214 7.532Q87.486 7.532 87.038 7.798Q86.59 8.064 86.562 8.54L85.302 8.54Q85.372 7.63 86.149 7.035Q86.926 6.44 88.214 6.44Q89.614 6.44 90.363 7.112Q91.112 7.784 91.112 8.988L91.112 14.28L89.866 14.28L89.866 12.88L89.838 12.88Q89.726 13.594 89.124 14.007Q88.522 14.42 87.528 14.42ZM87.836 13.356Q88.76 13.356 89.306 12.908Q89.852 12.46 89.852 11.69L89.852 10.612L87.612 10.612Q86.996 10.612 86.611 10.983Q86.226 11.354 86.226 11.97Q86.226 12.614 86.653 12.985Q87.08 13.356 87.836 13.356ZM96.712 14.42Q95.312 14.42 94.472 13.636Q93.632 12.852 93.632 11.48L93.632 9.38Q93.632 8.008 94.472 7.224Q95.312 6.44 96.712 6.44Q98.042 6.44 98.861 7.154Q99.68 7.868 99.722 9.1L98.462 9.1Q98.42 8.358 97.958 7.959Q97.496 7.56 96.712 7.56Q95.886 7.56 95.389 8.029Q94.892 8.498 94.892 9.366L94.892 11.48Q94.892 12.348 95.389 12.824Q95.886 13.3 96.712 13.3Q97.496 13.3 97.958 12.894Q98.42 12.488 98.462 11.76L99.722 11.76Q99.68 12.992 98.861 13.706Q98.042 14.42 96.712 14.42ZM105 14.42Q103.642 14.42 102.809 13.601Q101.976 12.782 101.976 11.34L101.976 9.52Q101.976 8.078 102.809 7.259Q103.642 6.44 105 6.44Q105.91 6.44 106.589 6.804Q107.268 7.168 107.646 7.826Q108.024 8.484 108.024 9.38L108.024 10.752L103.208 10.752L103.208 11.48Q103.208 12.334 103.698 12.831Q104.188 13.328 105 13.328Q105.7 13.328 106.155 13.055Q106.61 12.782 106.708 12.32L107.968 12.32Q107.842 13.286 107.03 13.853Q106.218 14.42 105 14.42ZM103.208 9.772L106.792 9.772L106.792 9.38Q106.792 8.47 106.323 7.973Q105.854 7.476 105 7.476Q104.146 7.476 103.677 7.973Q103.208 8.47 103.208 9.38L103.208 9.772ZM110.39 13.37L110.39 12.152L114.73 10.024Q114.996 9.898 115.227 9.807Q115.458 9.716 115.57 9.688Q115.444 9.66 115.206 9.562Q114.968 9.464 114.73 9.352L110.39 7.21L110.39 5.95L116.41 8.96L116.41 10.36L110.39 13.37Z" />
      </g>
    </g>
  </g>
</svg>